<mxfile host="app.diagrams.net" modified="2023-11-16T10:57:09.667Z" agent="Mozilla/5.0 (X11; Linux x86_64) AppleWebKit/537.36 (KHTML, like Gecko) Chrome/118.0.0.0 Safari/537.36" etag="1vE9VtLS1PYu15xBx_E1" version="22.1.2" type="device">
  <diagram name="Page-1" id="n9elE0P5eDOggX74E3v7">
    <mxGraphModel dx="759" dy="523" grid="1" gridSize="10" guides="1" tooltips="1" connect="1" arrows="1" fold="1" page="1" pageScale="1" pageWidth="1654" pageHeight="2336" math="0" shadow="0">
      <root>
        <mxCell id="0" />
        <mxCell id="1" parent="0" />
        <mxCell id="tw-lP7g9uukDJxaCtsnu-1" value="&lt;p style=&quot;margin:0px;margin-top:4px;margin-left:7px;text-align:left;&quot;&gt;&lt;b&gt;req&lt;/b&gt;  Anforderungen&lt;/p&gt;" style="html=1;shape=mxgraph.sysml.package;overflow=fill;labelX=117.67;strokeWidth=2;align=center;" vertex="1" parent="1">
          <mxGeometry x="600" y="140" width="1230" height="1720" as="geometry" />
        </mxCell>
        <mxCell id="tw-lP7g9uukDJxaCtsnu-2" value="&lt;p style=&quot;margin:0px;margin-top:4px;text-align:center;&quot;&gt;&amp;lt;&amp;lt;requirement&amp;gt;&amp;gt;&lt;br&gt;&lt;b&gt;Autonomes Fahrzeug&lt;/b&gt;&lt;/p&gt;&lt;hr&gt;&lt;p&gt;&lt;/p&gt;&lt;p style=&quot;margin:0px;margin-left:8px;text-align:left;&quot;&gt;text=&quot;Es soll ein Fahrzeug entwickelt werden, das sich in begrenzten Bereichen autonom bewegen kann u. Hindernisse umgehen kann&quot;&lt;br&gt;Id=&quot;1.&quot;&lt;/p&gt;" style="shape=rect;overflow=fill;html=1;whiteSpace=wrap;align=center;" vertex="1" parent="1">
          <mxGeometry x="960" y="172.5" width="290" height="130" as="geometry" />
        </mxCell>
        <mxCell id="tw-lP7g9uukDJxaCtsnu-3" value="&lt;p style=&quot;margin:0px;margin-top:4px;text-align:center;&quot;&gt;&amp;lt;&amp;lt;requirement&amp;gt;&amp;gt;&lt;br&gt;&lt;b&gt;Motosteuerung&lt;/b&gt;&lt;/p&gt;&lt;hr&gt;&lt;p&gt;&lt;/p&gt;&lt;p style=&quot;margin:0px;margin-left:8px;text-align:left;&quot;&gt;text=&quot;Der Motor des Fahrzeugs soll ansteuerbar sein&quot;&lt;br&gt;Id=&quot;2.&quot;&lt;/p&gt;" style="shape=rect;overflow=fill;html=1;whiteSpace=wrap;align=center;" vertex="1" parent="1">
          <mxGeometry x="1015" y="830" width="200" height="100" as="geometry" />
        </mxCell>
        <mxCell id="tw-lP7g9uukDJxaCtsnu-4" value="&lt;p style=&quot;margin:0px;margin-top:4px;text-align:center;&quot;&gt;&amp;lt;&amp;lt;requirement&amp;gt;&amp;gt;&lt;br&gt;&lt;b&gt;Getriebesteuerung&lt;/b&gt;&lt;/p&gt;&lt;hr&gt;&lt;p&gt;&lt;/p&gt;&lt;p style=&quot;margin:0px;margin-left:8px;text-align:left;&quot;&gt;text=&quot;Das Getriebe des Fahrzeugs soll ansteurbar sein&quot;&lt;br&gt;Id=&quot;3.&quot;&lt;/p&gt;" style="shape=rect;overflow=fill;html=1;whiteSpace=wrap;align=center;" vertex="1" parent="1">
          <mxGeometry x="640" y="570" width="200" height="100" as="geometry" />
        </mxCell>
        <mxCell id="tw-lP7g9uukDJxaCtsnu-5" value="&lt;p style=&quot;margin:0px;margin-top:4px;text-align:center;&quot;&gt;&amp;lt;&amp;lt;requirement&amp;gt;&amp;gt;&lt;br&gt;&lt;b&gt;Bremsen&lt;/b&gt;&lt;/p&gt;&lt;hr&gt;&lt;p&gt;&lt;/p&gt;&lt;p style=&quot;margin:0px;margin-left:8px;text-align:left;&quot;&gt;text=&quot;Das Fahrzeug soll die Bremsen betätigen können&quot;&lt;br&gt;Id=&quot;4.&quot;&lt;/p&gt;" style="shape=rect;overflow=fill;html=1;whiteSpace=wrap;align=center;" vertex="1" parent="1">
          <mxGeometry x="640" y="700" width="200" height="100" as="geometry" />
        </mxCell>
        <mxCell id="tw-lP7g9uukDJxaCtsnu-6" value="&lt;p style=&quot;margin:0px;margin-top:4px;text-align:center;&quot;&gt;&amp;lt;&amp;lt;requirement&amp;gt;&amp;gt;&lt;br&gt;&lt;b&gt;Lenkung&lt;/b&gt;&lt;/p&gt;&lt;hr&gt;&lt;p&gt;&lt;/p&gt;&lt;p style=&quot;margin:0px;margin-left:8px;text-align:left;&quot;&gt;text=&quot;Das Fahrzeug soll die Lenkung steuern können&quot;&lt;br&gt;Id=&quot;5.&quot;&lt;/p&gt;" style="shape=rect;overflow=fill;html=1;whiteSpace=wrap;align=center;" vertex="1" parent="1">
          <mxGeometry x="805" y="830" width="165" height="100" as="geometry" />
        </mxCell>
        <mxCell id="tw-lP7g9uukDJxaCtsnu-7" value="&lt;p style=&quot;margin:0px;margin-top:4px;text-align:center;&quot;&gt;&amp;lt;&amp;lt;requirement&amp;gt;&amp;gt;&lt;br&gt;&lt;b&gt;Sensoten auslesen&lt;/b&gt;&lt;/p&gt;&lt;hr&gt;&lt;p&gt;&lt;/p&gt;&lt;p style=&quot;margin:0px;margin-left:8px;text-align:left;&quot;&gt;text=&quot;Das Fahrzeug soll alle verfügbaren Sensoren auslesen können&quot;&lt;br&gt;Id=&quot;6.&quot;&lt;/p&gt;" style="shape=rect;overflow=fill;html=1;whiteSpace=wrap;align=center;" vertex="1" parent="1">
          <mxGeometry x="1575" y="1680" width="210" height="120" as="geometry" />
        </mxCell>
        <mxCell id="tw-lP7g9uukDJxaCtsnu-8" value="&lt;p style=&quot;margin:0px;margin-top:4px;text-align:center;&quot;&gt;&amp;lt;&amp;lt;requirement&amp;gt;&amp;gt;&lt;br&gt;&lt;b&gt;Fahrzeugposition&lt;/b&gt;&lt;/p&gt;&lt;hr&gt;&lt;p&gt;&lt;/p&gt;&lt;p style=&quot;margin:0px;margin-left:8px;text-align:left;&quot;&gt;text=&quot;Das Fahrzeug soll seine eigene Position kennen&quot;&lt;br&gt;Id=&quot;7.&quot;&lt;/p&gt;" style="shape=rect;overflow=fill;html=1;whiteSpace=wrap;align=center;" vertex="1" parent="1">
          <mxGeometry x="1245" y="990" width="200" height="100" as="geometry" />
        </mxCell>
        <mxCell id="tw-lP7g9uukDJxaCtsnu-9" value="&lt;p style=&quot;margin:0px;margin-top:4px;text-align:center;&quot;&gt;&amp;lt;&amp;lt;requirement&amp;gt;&amp;gt;&lt;br&gt;&lt;/p&gt;&lt;p style=&quot;margin:0px;margin-top:4px;text-align:center;&quot;&gt;&lt;b&gt;Sensordaten sammeln&lt;/b&gt;&lt;/p&gt;&lt;p&gt;&lt;/p&gt;&lt;p style=&quot;margin:0px;margin-left:8px;text-align:left;&quot;&gt;text=&quot;Das Fahrzeug soll seine Sensordaten sammeln können&quot;&lt;br&gt;Id=&quot;8.&quot;&lt;/p&gt;" style="shape=rect;overflow=fill;html=1;whiteSpace=wrap;align=center;" vertex="1" parent="1">
          <mxGeometry x="1580" y="1540" width="200" height="100" as="geometry" />
        </mxCell>
        <mxCell id="tw-lP7g9uukDJxaCtsnu-10" value="&lt;p style=&quot;margin:0px;margin-top:4px;text-align:center;&quot;&gt;&amp;lt;&amp;lt;requirement&amp;gt;&amp;gt;&lt;br&gt;&lt;/p&gt;&lt;p style=&quot;margin:0px;margin-top:4px;text-align:center;&quot;&gt;&lt;b&gt;Sensordaten kombinieren&lt;/b&gt;&lt;/p&gt;&lt;p&gt;&lt;/p&gt;&lt;p style=&quot;margin:0px;margin-left:8px;text-align:left;&quot;&gt;text=&quot;Das Fahrzeug soll verschiedene Sensordaten kombinieren können&quot;&lt;br&gt;Id=&quot;9.&quot;&lt;/p&gt;" style="shape=rect;overflow=fill;html=1;whiteSpace=wrap;align=center;" vertex="1" parent="1">
          <mxGeometry x="1565" y="1390" width="230" height="110" as="geometry" />
        </mxCell>
        <mxCell id="tw-lP7g9uukDJxaCtsnu-11" value="&lt;p style=&quot;margin:0px;margin-top:4px;text-align:center;&quot;&gt;&amp;lt;&amp;lt;requirement&amp;gt;&amp;gt;&lt;br&gt;&lt;b&gt;Sensordaten auswerten&lt;/b&gt;&lt;/p&gt;&lt;hr&gt;&lt;p&gt;&lt;/p&gt;&lt;p style=&quot;margin:0px;margin-left:8px;text-align:left;&quot;&gt;text=&quot;Das System soll vorhandene u. kombinierte Sensordaten auswerten können&quot;&lt;br&gt;Id=&quot;10&quot;&lt;/p&gt;" style="shape=rect;overflow=fill;html=1;whiteSpace=wrap;align=center;" vertex="1" parent="1">
          <mxGeometry x="1565" y="1240" width="230" height="110" as="geometry" />
        </mxCell>
        <mxCell id="tw-lP7g9uukDJxaCtsnu-12" value="&lt;p style=&quot;margin:0px;margin-top:4px;text-align:center;&quot;&gt;&amp;lt;&amp;lt;requirement&amp;gt;&amp;gt;&lt;br&gt;&lt;b&gt;Szenariensimulation&lt;/b&gt;&lt;/p&gt;&lt;hr&gt;&lt;p&gt;&lt;/p&gt;&lt;p style=&quot;margin:0px;margin-left:8px;text-align:left;&quot;&gt;text=&quot;Das Fahrzeug soll verschiedene Mögliche Szenarien in der nahen Zukunft simulieren können&quot;&lt;br&gt;Id=&quot;11&quot;&lt;/p&gt;" style="shape=rect;overflow=fill;html=1;whiteSpace=wrap;align=center;" vertex="1" parent="1">
          <mxGeometry x="1565" y="780" width="230" height="120" as="geometry" />
        </mxCell>
        <mxCell id="tw-lP7g9uukDJxaCtsnu-13" value="&lt;p style=&quot;margin:0px;margin-top:4px;text-align:center;&quot;&gt;&amp;lt;&amp;lt;requirement&amp;gt;&amp;gt;&lt;br&gt;&lt;/p&gt;&lt;p style=&quot;margin:0px;margin-top:4px;text-align:center;&quot;&gt;&lt;b&gt;Objektunterscheidung&lt;/b&gt;&lt;/p&gt;&lt;p&gt;&lt;/p&gt;&lt;p style=&quot;margin:0px;margin-left:8px;text-align:left;&quot;&gt;text=&quot;Das Fahrzeug soll verschiedene Arten von Objekten unterscheiden können&quot;&lt;br&gt;Id=&quot;12&quot;&lt;/p&gt;" style="shape=rect;overflow=fill;html=1;whiteSpace=wrap;align=center;" vertex="1" parent="1">
          <mxGeometry x="1575" y="1080" width="210" height="120" as="geometry" />
        </mxCell>
        <mxCell id="tw-lP7g9uukDJxaCtsnu-14" value="&lt;p style=&quot;margin:0px;margin-top:4px;text-align:center;&quot;&gt;&amp;lt;&amp;lt;requirement&amp;gt;&amp;gt;&lt;br&gt;&lt;/p&gt;&lt;p style=&quot;margin:0px;margin-top:4px;text-align:center;&quot;&gt;&lt;b&gt;Fahrspurerkennung&lt;/b&gt;&lt;/p&gt;&lt;p&gt;&lt;/p&gt;&lt;p style=&quot;margin:0px;margin-left:8px;text-align:left;&quot;&gt;text=&quot;Das Fahrzeug soll die aktuelle Fahrspur erkennen können&quot;&lt;br&gt;Id=&quot;13&quot;&lt;/p&gt;" style="shape=rect;overflow=fill;html=1;whiteSpace=wrap;align=center;" vertex="1" parent="1">
          <mxGeometry x="1245" y="830" width="200" height="100" as="geometry" />
        </mxCell>
        <mxCell id="tw-lP7g9uukDJxaCtsnu-15" value="&lt;p style=&quot;margin:0px;margin-top:4px;text-align:center;&quot;&gt;&amp;lt;&amp;lt;requirement&amp;gt;&amp;gt;&lt;br&gt;&lt;b&gt;Hinderniserkennung&lt;/b&gt;&lt;/p&gt;&lt;hr&gt;&lt;p&gt;&lt;/p&gt;&lt;p style=&quot;margin:0px;margin-left:8px;text-align:left;&quot;&gt;text=&quot;Das Fahrzeug soll Hindernisse auf der Fahrstrecke erkennen können&quot;&lt;br&gt;Id=&quot;14&quot;&lt;/p&gt;" style="shape=rect;overflow=fill;html=1;whiteSpace=wrap;align=center;" vertex="1" parent="1">
          <mxGeometry x="1560" y="935" width="240" height="110" as="geometry" />
        </mxCell>
        <mxCell id="tw-lP7g9uukDJxaCtsnu-16" value="&lt;p style=&quot;margin:0px;margin-top:4px;text-align:center;&quot;&gt;&amp;lt;&amp;lt;requirement&amp;gt;&amp;gt;&lt;br&gt;&lt;b&gt;Hindernisse umfahren&lt;/b&gt;&lt;/p&gt;&lt;hr&gt;&lt;p&gt;&lt;/p&gt;&lt;p style=&quot;margin:0px;margin-left:8px;text-align:left;&quot;&gt;text=&quot;Das Fahrzeug soll Hindernisse umfahren können&quot;&lt;br&gt;Id=&quot;15&quot;&lt;/p&gt;" style="shape=rect;overflow=fill;html=1;whiteSpace=wrap;align=center;" vertex="1" parent="1">
          <mxGeometry x="1580" y="460" width="200" height="100" as="geometry" />
        </mxCell>
        <mxCell id="tw-lP7g9uukDJxaCtsnu-17" value="&lt;p style=&quot;margin:0px;margin-top:4px;text-align:center;&quot;&gt;&amp;lt;&amp;lt;requirement&amp;gt;&amp;gt;&lt;br&gt;&lt;b&gt;Hindernistrajektorien&lt;/b&gt;&lt;/p&gt;&lt;hr&gt;&lt;p&gt;&lt;/p&gt;&lt;p style=&quot;margin:0px;margin-left:8px;text-align:left;&quot;&gt;text=&quot;Das Fahrzeug soll Trajektorien um Hindernisse herum planen können&quot;&lt;br&gt;Id=&quot;16&quot;&lt;/p&gt;" style="shape=rect;overflow=fill;html=1;whiteSpace=wrap;align=center;" vertex="1" parent="1">
          <mxGeometry x="1565" y="620" width="230" height="120" as="geometry" />
        </mxCell>
        <mxCell id="tw-lP7g9uukDJxaCtsnu-18" value="&lt;p style=&quot;margin:0px;margin-top:4px;text-align:center;&quot;&gt;&amp;lt;&amp;lt;requirement&amp;gt;&amp;gt;&lt;br&gt;&lt;b&gt;Trajektorien folgen&lt;/b&gt;&lt;/p&gt;&lt;hr&gt;&lt;p&gt;&lt;/p&gt;&lt;p style=&quot;margin:0px;margin-left:8px;text-align:left;&quot;&gt;text=&quot;Das Fahrzeug soll berechneten Trajektorien folgen können&quot;&lt;br&gt;Id=&quot;17&quot;&lt;/p&gt;" style="shape=rect;overflow=fill;html=1;whiteSpace=wrap;align=center;" vertex="1" parent="1">
          <mxGeometry x="920" y="630" width="220" height="110" as="geometry" />
        </mxCell>
        <mxCell id="tw-lP7g9uukDJxaCtsnu-19" value="&lt;p style=&quot;margin:0px;margin-top:4px;text-align:center;&quot;&gt;&amp;lt;&amp;lt;requirement&amp;gt;&amp;gt;&lt;br&gt;&lt;b&gt;Zielplanung&lt;/b&gt;&lt;/p&gt;&lt;hr&gt;&lt;p&gt;&lt;/p&gt;&lt;p style=&quot;margin:0px;margin-left:8px;text-align:left;&quot;&gt;text=&quot;Der Fahrer soll entscheiden können, wohin die Reise geht&quot;&lt;br&gt;Id=&quot;17&quot;&lt;/p&gt;" style="shape=rect;overflow=fill;html=1;whiteSpace=wrap;align=center;" vertex="1" parent="1">
          <mxGeometry x="820" y="340" width="200" height="100" as="geometry" />
        </mxCell>
        <mxCell id="tw-lP7g9uukDJxaCtsnu-20" value="&lt;p style=&quot;margin:0px;margin-top:4px;text-align:center;&quot;&gt;&amp;lt;&amp;lt;requirement&amp;gt;&amp;gt;&lt;br&gt;&lt;b&gt;Manueller Stopp&lt;/b&gt;&lt;/p&gt;&lt;hr&gt;&lt;p&gt;&lt;/p&gt;&lt;p style=&quot;margin:0px;margin-left:8px;text-align:left;&quot;&gt;text=&quot;Der Fahrer soll das Fahrzeug manuell zum Stopp bringen können&lt;span style=&quot;background-color: initial;&quot;&gt;&quot;&lt;/span&gt;&lt;/p&gt;&lt;p style=&quot;margin:0px;margin-left:8px;text-align:left;&quot;&gt;Id=&quot;18&quot;&lt;/p&gt;" style="shape=rect;overflow=fill;html=1;whiteSpace=wrap;align=center;" vertex="1" parent="1">
          <mxGeometry x="1360" y="175" width="190" height="125" as="geometry" />
        </mxCell>
        <mxCell id="tw-lP7g9uukDJxaCtsnu-21" value="&lt;p style=&quot;margin:0px;margin-top:4px;text-align:center;&quot;&gt;&amp;lt;&amp;lt;requirement&amp;gt;&amp;gt;&lt;br&gt;&lt;/p&gt;&lt;p style=&quot;margin:0px;margin-top:4px;text-align:center;&quot;&gt;&lt;b&gt;Zeiteffizient&lt;/b&gt;&lt;/p&gt;&lt;p&gt;&lt;/p&gt;&lt;p style=&quot;margin:0px;margin-left:8px;text-align:left;&quot;&gt;text=&quot;Das Fahrzeug soll den schnellsten Weg zum Ziel nehmen&quot;&lt;br&gt;Id=&quot;19&lt;span style=&quot;background-color: initial;&quot;&gt;&quot;&lt;/span&gt;&lt;/p&gt;" style="shape=rect;overflow=fill;html=1;whiteSpace=wrap;align=center;" vertex="1" parent="1">
          <mxGeometry x="1050" y="340" width="210" height="100" as="geometry" />
        </mxCell>
        <mxCell id="tw-lP7g9uukDJxaCtsnu-22" value="&lt;p style=&quot;margin:0px;margin-top:4px;text-align:center;&quot;&gt;&amp;lt;&amp;lt;requirement&amp;gt;&amp;gt;&lt;br&gt;&lt;/p&gt;&lt;p style=&quot;margin:0px;margin-top:4px;text-align:center;&quot;&gt;&lt;b&gt;StVO einhalten&lt;/b&gt;&lt;/p&gt;&lt;p&gt;&lt;/p&gt;&lt;p style=&quot;margin:0px;margin-left:8px;text-align:left;&quot;&gt;text=&quot;Das Fahrzeug soll die StVO einhalten&quot;&lt;br&gt;Id=&quot;20&quot;&lt;/p&gt;" style="shape=rect;overflow=fill;html=1;whiteSpace=wrap;align=center;" vertex="1" parent="1">
          <mxGeometry x="1290" y="340" width="200" height="100" as="geometry" />
        </mxCell>
        <mxCell id="tw-lP7g9uukDJxaCtsnu-23" value="&amp;lt;&amp;lt;trace&amp;gt;&amp;gt;" style="endArrow=open;html=1;edgeStyle=none;endSize=12;dashed=1;rounded=0;entryX=0.5;entryY=0;entryDx=0;entryDy=0;exitX=0;exitY=0.5;exitDx=0;exitDy=0;" edge="1" parent="1" source="tw-lP7g9uukDJxaCtsnu-2" target="tw-lP7g9uukDJxaCtsnu-19">
          <mxGeometry relative="1" as="geometry">
            <mxPoint x="860" y="224.5" as="sourcePoint" />
            <mxPoint x="980" y="224.5" as="targetPoint" />
          </mxGeometry>
        </mxCell>
        <mxCell id="tw-lP7g9uukDJxaCtsnu-24" value="&amp;lt;&amp;lt;trace&amp;gt;&amp;gt;" style="endArrow=open;html=1;edgeStyle=none;endSize=12;dashed=1;rounded=0;entryX=0.5;entryY=0;entryDx=0;entryDy=0;exitX=0.5;exitY=1;exitDx=0;exitDy=0;" edge="1" parent="1" source="tw-lP7g9uukDJxaCtsnu-2" target="tw-lP7g9uukDJxaCtsnu-21">
          <mxGeometry relative="1" as="geometry">
            <mxPoint x="1120" y="500" as="sourcePoint" />
            <mxPoint x="990" y="605" as="targetPoint" />
          </mxGeometry>
        </mxCell>
        <mxCell id="tw-lP7g9uukDJxaCtsnu-25" value="&amp;lt;&amp;lt;trace&amp;gt;&amp;gt;" style="endArrow=open;html=1;edgeStyle=none;endSize=12;dashed=1;rounded=0;entryX=0.5;entryY=0;entryDx=0;entryDy=0;exitX=0.75;exitY=1;exitDx=0;exitDy=0;" edge="1" parent="1" source="tw-lP7g9uukDJxaCtsnu-2" target="tw-lP7g9uukDJxaCtsnu-22">
          <mxGeometry relative="1" as="geometry">
            <mxPoint x="1070" y="255" as="sourcePoint" />
            <mxPoint x="940" y="360" as="targetPoint" />
          </mxGeometry>
        </mxCell>
        <mxCell id="tw-lP7g9uukDJxaCtsnu-26" value="&amp;lt;&amp;lt;trace&amp;gt;&amp;gt;" style="endArrow=open;html=1;edgeStyle=none;endSize=12;dashed=1;rounded=0;entryX=0;entryY=0.5;entryDx=0;entryDy=0;exitX=1;exitY=0.5;exitDx=0;exitDy=0;" edge="1" parent="1" source="tw-lP7g9uukDJxaCtsnu-2" target="tw-lP7g9uukDJxaCtsnu-20">
          <mxGeometry relative="1" as="geometry">
            <mxPoint x="1080" y="265" as="sourcePoint" />
            <mxPoint x="950" y="370" as="targetPoint" />
          </mxGeometry>
        </mxCell>
        <mxCell id="tw-lP7g9uukDJxaCtsnu-27" value="&lt;p style=&quot;margin:0px;margin-top:4px;text-align:center;&quot;&gt;&amp;lt;&amp;lt;requirement&amp;gt;&amp;gt;&lt;br&gt;&lt;b&gt;Ziel anfahren&lt;/b&gt;&lt;/p&gt;&lt;hr&gt;&lt;p&gt;&lt;/p&gt;&lt;p style=&quot;margin:0px;margin-left:8px;text-align:left;&quot;&gt;text=&quot;Das Fahtrzeug soll ein bestimmtes Ziel anfahren können&quot;&lt;br&gt;Id=&quot;21&lt;span style=&quot;background-color: initial;&quot;&gt;&quot;&lt;/span&gt;&lt;/p&gt;" style="shape=rect;overflow=fill;html=1;whiteSpace=wrap;align=center;" vertex="1" parent="1">
          <mxGeometry x="930" y="480" width="200" height="100" as="geometry" />
        </mxCell>
        <mxCell id="tw-lP7g9uukDJxaCtsnu-28" value="&amp;lt;&amp;lt;trace&amp;gt;&amp;gt;" style="endArrow=open;html=1;edgeStyle=none;endSize=12;dashed=1;rounded=0;entryX=0.5;entryY=0;entryDx=0;entryDy=0;exitX=0.25;exitY=1;exitDx=0;exitDy=0;" edge="1" parent="1" source="tw-lP7g9uukDJxaCtsnu-2" target="tw-lP7g9uukDJxaCtsnu-27">
          <mxGeometry x="-0.6914" y="8" relative="1" as="geometry">
            <mxPoint x="1090" y="275" as="sourcePoint" />
            <mxPoint x="960" y="380" as="targetPoint" />
            <mxPoint as="offset" />
          </mxGeometry>
        </mxCell>
        <mxCell id="tw-lP7g9uukDJxaCtsnu-29" value="&amp;lt;&amp;lt;deriveReq&amp;gt;&amp;gt;" style="endArrow=open;html=1;edgeStyle=none;endSize=12;dashed=1;rounded=0;entryX=0.5;entryY=0;entryDx=0;entryDy=0;exitX=0.5;exitY=1;exitDx=0;exitDy=0;" edge="1" parent="1" source="tw-lP7g9uukDJxaCtsnu-27" target="tw-lP7g9uukDJxaCtsnu-18">
          <mxGeometry relative="1" as="geometry">
            <mxPoint x="1100" y="285" as="sourcePoint" />
            <mxPoint x="970" y="390" as="targetPoint" />
          </mxGeometry>
        </mxCell>
        <mxCell id="tw-lP7g9uukDJxaCtsnu-30" value="&amp;lt;&amp;lt;deriveReq&amp;gt;&amp;gt;" style="endArrow=open;html=1;edgeStyle=none;endSize=12;dashed=1;rounded=0;entryX=0;entryY=0.5;entryDx=0;entryDy=0;exitX=1;exitY=0.5;exitDx=0;exitDy=0;" edge="1" parent="1" source="tw-lP7g9uukDJxaCtsnu-27" target="tw-lP7g9uukDJxaCtsnu-16">
          <mxGeometry relative="1" as="geometry">
            <mxPoint x="1110" y="295" as="sourcePoint" />
            <mxPoint x="980" y="400" as="targetPoint" />
          </mxGeometry>
        </mxCell>
        <mxCell id="tw-lP7g9uukDJxaCtsnu-31" value="&amp;lt;&amp;lt;deriveReq&amp;gt;&amp;gt;" style="endArrow=open;html=1;edgeStyle=none;endSize=12;dashed=1;rounded=0;entryX=0.5;entryY=0;entryDx=0;entryDy=0;exitX=0.5;exitY=1;exitDx=0;exitDy=0;" edge="1" parent="1" source="tw-lP7g9uukDJxaCtsnu-16" target="tw-lP7g9uukDJxaCtsnu-17">
          <mxGeometry relative="1" as="geometry">
            <mxPoint x="1470" y="285" as="sourcePoint" />
            <mxPoint x="1340" y="390" as="targetPoint" />
          </mxGeometry>
        </mxCell>
        <mxCell id="tw-lP7g9uukDJxaCtsnu-32" value="&amp;lt;&amp;lt;trace&amp;gt;&amp;gt;" style="endArrow=open;html=1;edgeStyle=none;endSize=12;dashed=1;rounded=0;entryX=0.5;entryY=0;entryDx=0;entryDy=0;exitX=0.5;exitY=1;exitDx=0;exitDy=0;" edge="1" parent="1" source="tw-lP7g9uukDJxaCtsnu-12" target="tw-lP7g9uukDJxaCtsnu-15">
          <mxGeometry relative="1" as="geometry">
            <mxPoint x="1480" y="475" as="sourcePoint" />
            <mxPoint x="1350" y="580" as="targetPoint" />
          </mxGeometry>
        </mxCell>
        <mxCell id="tw-lP7g9uukDJxaCtsnu-33" value="&amp;lt;&amp;lt;trace&amp;gt;&amp;gt;" style="endArrow=open;html=1;edgeStyle=none;endSize=12;dashed=1;rounded=0;entryX=0.5;entryY=0;entryDx=0;entryDy=0;exitX=0.5;exitY=1;exitDx=0;exitDy=0;" edge="1" parent="1" source="tw-lP7g9uukDJxaCtsnu-15" target="tw-lP7g9uukDJxaCtsnu-13">
          <mxGeometry relative="1" as="geometry">
            <mxPoint x="1490" y="485" as="sourcePoint" />
            <mxPoint x="1360" y="590" as="targetPoint" />
          </mxGeometry>
        </mxCell>
        <mxCell id="tw-lP7g9uukDJxaCtsnu-34" value="&amp;lt;&amp;lt;deriveReq&amp;gt;&amp;gt;" style="endArrow=open;html=1;edgeStyle=none;endSize=12;dashed=1;rounded=0;entryX=0.5;entryY=0;entryDx=0;entryDy=0;exitX=1;exitY=1;exitDx=0;exitDy=0;" edge="1" parent="1" source="tw-lP7g9uukDJxaCtsnu-18" target="tw-lP7g9uukDJxaCtsnu-14">
          <mxGeometry relative="1" as="geometry">
            <mxPoint x="1150" y="335" as="sourcePoint" />
            <mxPoint x="1020" y="440" as="targetPoint" />
          </mxGeometry>
        </mxCell>
        <mxCell id="tw-lP7g9uukDJxaCtsnu-35" value="&amp;lt;&amp;lt;trace&amp;gt;&amp;gt;" style="endArrow=open;html=1;edgeStyle=none;endSize=12;dashed=1;rounded=0;entryX=0;entryY=0.5;entryDx=0;entryDy=0;exitX=1;exitY=0.5;exitDx=0;exitDy=0;" edge="1" parent="1" source="tw-lP7g9uukDJxaCtsnu-14" target="tw-lP7g9uukDJxaCtsnu-13">
          <mxGeometry relative="1" as="geometry">
            <mxPoint x="1160" y="345" as="sourcePoint" />
            <mxPoint x="1030" y="450" as="targetPoint" />
          </mxGeometry>
        </mxCell>
        <mxCell id="tw-lP7g9uukDJxaCtsnu-36" value="&amp;lt;&amp;lt;containment&amp;gt;&amp;gt;" style="endArrow=open;html=1;edgeStyle=none;endSize=12;dashed=1;rounded=0;entryX=0.5;entryY=0;entryDx=0;entryDy=0;exitX=0.5;exitY=1;exitDx=0;exitDy=0;" edge="1" parent="1" source="tw-lP7g9uukDJxaCtsnu-13" target="tw-lP7g9uukDJxaCtsnu-11">
          <mxGeometry relative="1" as="geometry">
            <mxPoint x="1520" y="515" as="sourcePoint" />
            <mxPoint x="1390" y="620" as="targetPoint" />
          </mxGeometry>
        </mxCell>
        <mxCell id="tw-lP7g9uukDJxaCtsnu-37" value="&amp;lt;&amp;lt;trace&amp;gt;&amp;gt;" style="endArrow=open;html=1;edgeStyle=none;endSize=12;dashed=1;rounded=0;entryX=0.5;entryY=0;entryDx=0;entryDy=0;exitX=0.5;exitY=1;exitDx=0;exitDy=0;" edge="1" parent="1" source="tw-lP7g9uukDJxaCtsnu-11" target="tw-lP7g9uukDJxaCtsnu-10">
          <mxGeometry relative="1" as="geometry">
            <mxPoint x="1530" y="525" as="sourcePoint" />
            <mxPoint x="1400" y="630" as="targetPoint" />
          </mxGeometry>
        </mxCell>
        <mxCell id="tw-lP7g9uukDJxaCtsnu-38" value="&amp;lt;&amp;lt;trace&amp;gt;&amp;gt;" style="endArrow=open;html=1;edgeStyle=none;endSize=12;dashed=1;rounded=0;exitX=0.5;exitY=1;exitDx=0;exitDy=0;" edge="1" parent="1" source="tw-lP7g9uukDJxaCtsnu-10" target="tw-lP7g9uukDJxaCtsnu-9">
          <mxGeometry relative="1" as="geometry">
            <mxPoint x="1540" y="535" as="sourcePoint" />
            <mxPoint x="1410" y="640" as="targetPoint" />
          </mxGeometry>
        </mxCell>
        <mxCell id="tw-lP7g9uukDJxaCtsnu-39" value="&amp;lt;&amp;lt;trace&amp;gt;&amp;gt;" style="endArrow=open;html=1;edgeStyle=none;endSize=12;dashed=1;rounded=0;entryX=0.5;entryY=0;entryDx=0;entryDy=0;exitX=0.5;exitY=1;exitDx=0;exitDy=0;" edge="1" parent="1" source="tw-lP7g9uukDJxaCtsnu-9" target="tw-lP7g9uukDJxaCtsnu-7">
          <mxGeometry relative="1" as="geometry">
            <mxPoint x="1550" y="545" as="sourcePoint" />
            <mxPoint x="1420" y="650" as="targetPoint" />
          </mxGeometry>
        </mxCell>
        <mxCell id="tw-lP7g9uukDJxaCtsnu-40" value="&amp;lt;&amp;lt;trace&amp;gt;&amp;gt;" style="endArrow=open;html=1;edgeStyle=none;endSize=12;dashed=1;rounded=0;entryX=0.5;entryY=0;entryDx=0;entryDy=0;exitX=0.5;exitY=1;exitDx=0;exitDy=0;" edge="1" parent="1" source="tw-lP7g9uukDJxaCtsnu-17" target="tw-lP7g9uukDJxaCtsnu-12">
          <mxGeometry relative="1" as="geometry">
            <mxPoint x="1280" y="385" as="sourcePoint" />
            <mxPoint x="1150" y="490" as="targetPoint" />
          </mxGeometry>
        </mxCell>
        <mxCell id="tw-lP7g9uukDJxaCtsnu-41" value="&amp;lt;&amp;lt;containment&amp;gt;&amp;gt;" style="endArrow=open;html=1;edgeStyle=none;endSize=12;dashed=1;rounded=0;entryX=1;entryY=0.5;entryDx=0;entryDy=0;exitX=0;exitY=0.5;exitDx=0;exitDy=0;" edge="1" parent="1" source="tw-lP7g9uukDJxaCtsnu-17" target="tw-lP7g9uukDJxaCtsnu-18">
          <mxGeometry relative="1" as="geometry">
            <mxPoint x="1220" y="405" as="sourcePoint" />
            <mxPoint x="1090" y="510" as="targetPoint" />
          </mxGeometry>
        </mxCell>
        <mxCell id="tw-lP7g9uukDJxaCtsnu-42" style="edgeStyle=orthogonalEdgeStyle;rounded=0;orthogonalLoop=1;jettySize=auto;html=1;exitX=0.5;exitY=1;exitDx=0;exitDy=0;exitPerimeter=0;" edge="1" parent="1" source="tw-lP7g9uukDJxaCtsnu-1" target="tw-lP7g9uukDJxaCtsnu-1">
          <mxGeometry relative="1" as="geometry" />
        </mxCell>
        <mxCell id="tw-lP7g9uukDJxaCtsnu-43" value="&amp;lt;&amp;lt;trace&amp;gt;&amp;gt;" style="endArrow=open;html=1;edgeStyle=none;endSize=12;dashed=1;rounded=0;entryX=0.5;entryY=0;entryDx=0;entryDy=0;exitX=0.5;exitY=1;exitDx=0;exitDy=0;" edge="1" parent="1" source="tw-lP7g9uukDJxaCtsnu-14" target="tw-lP7g9uukDJxaCtsnu-8">
          <mxGeometry relative="1" as="geometry">
            <mxPoint x="1495" y="445" as="sourcePoint" />
            <mxPoint x="1365" y="550" as="targetPoint" />
          </mxGeometry>
        </mxCell>
        <mxCell id="tw-lP7g9uukDJxaCtsnu-44" value="&amp;lt;&amp;lt;trace&amp;gt;&amp;gt;" style="endArrow=open;html=1;edgeStyle=none;endSize=12;dashed=1;rounded=0;entryX=0.995;entryY=0.61;entryDx=0;entryDy=0;exitX=0;exitY=0.5;exitDx=0;exitDy=0;entryPerimeter=0;" edge="1" parent="1" source="tw-lP7g9uukDJxaCtsnu-12" target="tw-lP7g9uukDJxaCtsnu-8">
          <mxGeometry relative="1" as="geometry">
            <mxPoint x="1240" y="425" as="sourcePoint" />
            <mxPoint x="1110" y="530" as="targetPoint" />
          </mxGeometry>
        </mxCell>
        <mxCell id="tw-lP7g9uukDJxaCtsnu-45" value="&amp;lt;&amp;lt;deriveReq&amp;gt;&amp;gt;" style="endArrow=open;html=1;edgeStyle=none;endSize=12;dashed=1;rounded=0;entryX=1;entryY=0.5;entryDx=0;entryDy=0;exitX=0;exitY=0.25;exitDx=0;exitDy=0;" edge="1" parent="1" source="tw-lP7g9uukDJxaCtsnu-18" target="tw-lP7g9uukDJxaCtsnu-4">
          <mxGeometry relative="1" as="geometry">
            <mxPoint x="1250" y="435" as="sourcePoint" />
            <mxPoint x="1120" y="540" as="targetPoint" />
          </mxGeometry>
        </mxCell>
        <mxCell id="tw-lP7g9uukDJxaCtsnu-46" value="&amp;lt;&amp;lt;deriveReq&amp;gt;&amp;gt;" style="endArrow=open;html=1;edgeStyle=none;endSize=12;dashed=1;rounded=0;entryX=1;entryY=0.5;entryDx=0;entryDy=0;exitX=0;exitY=0.75;exitDx=0;exitDy=0;" edge="1" parent="1" source="tw-lP7g9uukDJxaCtsnu-18" target="tw-lP7g9uukDJxaCtsnu-5">
          <mxGeometry relative="1" as="geometry">
            <mxPoint x="1260" y="445" as="sourcePoint" />
            <mxPoint x="1130" y="550" as="targetPoint" />
          </mxGeometry>
        </mxCell>
        <mxCell id="tw-lP7g9uukDJxaCtsnu-47" value="&amp;lt;&amp;lt;deriveReq&amp;gt;&amp;gt;" style="endArrow=open;html=1;edgeStyle=none;endSize=12;dashed=1;rounded=0;entryX=0.5;entryY=0;entryDx=0;entryDy=0;exitX=0.25;exitY=1;exitDx=0;exitDy=0;" edge="1" parent="1" source="tw-lP7g9uukDJxaCtsnu-18" target="tw-lP7g9uukDJxaCtsnu-6">
          <mxGeometry relative="1" as="geometry">
            <mxPoint x="1270" y="455" as="sourcePoint" />
            <mxPoint x="1140" y="560" as="targetPoint" />
          </mxGeometry>
        </mxCell>
        <mxCell id="tw-lP7g9uukDJxaCtsnu-48" value="&amp;lt;&amp;lt;deriveReq&amp;gt;&amp;gt;" style="endArrow=open;html=1;edgeStyle=none;endSize=12;dashed=1;rounded=0;entryX=0.5;entryY=0;entryDx=0;entryDy=0;exitX=0.75;exitY=1;exitDx=0;exitDy=0;" edge="1" parent="1" source="tw-lP7g9uukDJxaCtsnu-18" target="tw-lP7g9uukDJxaCtsnu-3">
          <mxGeometry relative="1" as="geometry">
            <mxPoint x="1280" y="465" as="sourcePoint" />
            <mxPoint x="1150" y="570" as="targetPoint" />
          </mxGeometry>
        </mxCell>
      </root>
    </mxGraphModel>
  </diagram>
</mxfile>
